<svg version="1.2" xmlns="http://www.w3.org/2000/svg" viewBox="0 0 572 519" width="572" height="519">
	<title>Sin título1</title>
	<style>
		.s0 { fill: none;stroke: #ffffff;stroke-width: 35 } 
	</style>
	<path id="Forma 1" class="s0" d="m115 185l121-120c0 0 203.5 208.7 219.7 220.9 26.4 19.7 74.7 25 89.9-20.5 11.3-33.9-38.7-60.6-67.1-51.9-15.2 4.7-34.5 26.8-34.5 26.8l-205 218.7-121-121m333.2-156l-121-120c0 0-203.5 208.7-219.7 220.9-26.4 19.7-74.7 25-89.9-20.5-11.3-33.9 38.7-60.6 67.1-51.9 15.2 4.7 34.5 26.8 34.5 26.8l17.8 18.7 187.2 200 121-121"/>
</svg>